# xmcd
#
# Track frame offsets: 
#        160
#        15815
#        32232
#        48850
#        69237
#        88812
#        105175
#        124185
#        142065
#        162720
#        187562
#        205597
#        223282
#
# Disc length: 3159 seconds
#
# Revision: 0
# Processed by: cddbd v1.5.1PL0 Copyright (c) Steve Scherf et al.
# Submitted via: ExactAudioCopy v0.95a3
#
DISCID=aa0c550d
DTITLE=Various Artist - Союз 17. Vol 1
DYEAR=1996
DGENRE=Pop
TTITLE0=Дюна - Фонарики
TTITLE1=Маша Распутина - Ах, Одесса
TTITLE2=Таня Буланова - Обратный Билет
TTITLE3=Месмер - Матумба
TTITLE4=Владимир Цветаев - Леди Любовь
TTITLE5=Татьяна Овсиенко - Школьная Пора
TTITLE6=А-Студио - Нелюбимая
TTITLE7=Ирина Салтыкова - Да И Нет
TTITLE8=Лариса Черникова - Да Ты Не Смейся
TTITLE9=Радио Транс - Красная Шапочка
TTITLE10=Алексей Стёпин - Только Ты
TTITLE11=Николай Трубач - Женская Любовь
TTITLE12=Трофим - Ты Мой Свет
EXTD=
EXTT0=
EXTT1=
EXTT2=
EXTT3=
EXTT4=
EXTT5=
EXTT6=
EXTT7=
EXTT8=
EXTT9=
EXTT10=
EXTT11=
EXTT12=
PLAYORDER=
